<?xml version="1.0" standalone="no"?>
<!DOCTYPE svg PUBLIC "-//W3C//DTD SVG 20010904//EN"
 "http://www.w3.org/TR/2001/REC-SVG-20010904/DTD/svg10.dtd">
<svg version="1.0" xmlns="http://www.w3.org/2000/svg"
 width="512.000000pt" height="512.000000pt" viewBox="0 0 512.000000 512.000000"
 preserveAspectRatio="xMidYMid meet">

<g transform="translate(0.000000,512.000000) scale(0.100000,-0.100000)"
fill="#000000" stroke="none">
<path d="M2220 5113 c-142 -27 -276 -148 -320 -291 -19 -62 -20 -96 -20 -1152
0 -1057 1 -1090 20 -1151 11 -35 29 -77 40 -94 11 -16 20 -34 20 -38 0 -21
-231 -105 -382 -139 -83 -19 -141 -21 -553 -27 l-460 -7 -80 -27 c-235 -78
-407 -262 -460 -492 -21 -89 -21 -230 -1 -317 57 -243 265 -451 505 -504 42
-9 81 -18 86 -19 6 -1 75 -165 155 -364 199 -499 186 -486 480 -486 l185 0 53
30 c58 31 101 84 122 149 23 72 9 128 -99 399 -57 142 -102 260 -100 262 2 2
47 -3 99 -11 295 -44 587 -187 805 -394 80 -76 116 -94 190 -94 72 0 129 26
173 79 48 59 52 88 52 402 l0 289 54 17 c78 25 169 96 215 167 112 172 90 393
-53 535 -53 53 -160 115 -198 115 -16 0 -18 13 -18 135 l0 135 300 0 300 0 0
-309 c0 -195 4 -320 11 -338 24 -64 109 -123 179 -123 19 0 53 9 75 19 22 11
219 183 440 385 l400 365 155 1 c85 0 175 5 199 11 153 35 275 156 317 314 18
67 20 2154 3 2237 -33 153 -158 283 -313 324 -42 11 -271 14 -1301 13 -687 -1
-1261 -4 -1275 -6z m2585 -190 c47 -25 95 -74 121 -123 18 -34 19 -81 19
-1130 l0 -1095 -22 -40 c-28 -53 -78 -99 -133 -124 -40 -18 -66 -21 -225 -21
-122 -1 -187 -5 -201 -13 -12 -7 -205 -178 -428 -382 -224 -203 -412 -370
-419 -370 -9 0 -13 86 -17 358 l-5 359 -28 24 -28 24 -355 0 -354 0 0 73 c0
96 -14 140 -58 189 -46 51 -102 77 -165 78 -69 0 -100 -17 -208 -111 -53 -46
-114 -97 -137 -113 -40 -28 -43 -28 -62 -11 -51 46 -50 27 -50 1175 0 1183 -3
1123 66 1194 35 36 78 63 124 77 14 4 588 7 1275 6 l1250 -2 40 -22z m-2263
-2380 c17 -15 18 -60 18 -1005 0 -975 0 -988 -20 -1008 -11 -11 -27 -20 -35
-20 -9 0 -44 26 -78 58 -272 251 -595 402 -954 444 l-103 12 0 512 0 512 68 7
c357 35 715 195 972 434 78 73 101 82 132 54z m-1352 -1009 l0 -516 -297 4
c-272 4 -304 7 -364 26 -253 83 -404 346 -344 600 45 191 201 346 389 387 42
9 148 14 339 14 l277 1 0 -516z m1601 210 c89 -61 129 -179 97 -286 -17 -59
-113 -158 -153 -158 -3 0 -5 106 -5 235 0 176 3 235 12 235 7 0 29 -12 49 -26z
m-1455 -1184 c63 -156 114 -295 114 -308 0 -13 -13 -37 -29 -53 l-29 -29 -141
0 c-131 0 -141 1 -164 22 -22 21 -60 111 -258 611 l-19 47 206 -2 206 -3 114
-285z"/>
<path d="M2415 4495 c-35 -34 -33 -78 4 -116 l29 -29 574 0 c438 0 579 3 598
13 54 27 63 94 20 137 -19 19 -36 20 -610 20 l-591 0 -24 -25z"/>
<path d="M2453 3923 c-30 -6 -63 -49 -63 -84 0 -15 11 -41 24 -56 l24 -28
1034 -3 c731 -2 1044 0 1071 8 79 23 86 125 11 156 -28 12 -208 14 -1056 13
-563 -1 -1033 -4 -1045 -6z"/>
<path d="M2419 3471 c-37 -38 -39 -82 -4 -116 24 -25 25 -25 230 -25 205 0
206 0 230 25 35 34 33 78 -4 116 l-29 29 -197 0 -197 0 -29 -29z"/>
<path d="M3106 3478 c-40 -35 -43 -78 -11 -116 l27 -32 718 0 718 0 27 32 c32
38 29 81 -11 116 l-25 22 -709 0 -709 0 -25 -22z"/>
<path d="M2415 3045 c-35 -34 -33 -78 4 -116 l30 -29 885 2 885 3 23 22 c33
33 30 89 -6 119 l-27 24 -885 0 -885 0 -24 -25z"/>
</g>
</svg>
