<?xml version="1.0" encoding="UTF-8" standalone="no"?>
<svg
   xmlns:dc="http://purl.org/dc/elements/1.1/"
   xmlns:cc="http://creativecommons.org/ns#"
   xmlns:rdf="http://www.w3.org/1999/02/22-rdf-syntax-ns#"
   xmlns:svg="http://www.w3.org/2000/svg"
   xmlns="http://www.w3.org/2000/svg"
   viewBox="0 0 864 864"
   height="864"
   width="864"
   xml:space="preserve"
   id="svg2"
   version="1.1"><metadata
     id="metadata8"><rdf:RDF><cc:Work
         rdf:about=""><dc:format>image/svg+xml</dc:format><dc:type
           rdf:resource="http://purl.org/dc/dcmitype/StillImage" /></cc:Work></rdf:RDF></metadata><defs
     id="defs6" /><g
     transform="matrix(1.3333333,0,0,-1.3333333,0,864)"
     id="g10"><g
       transform="scale(0.1)"
       id="g12"><path
         id="path14"
         style="fill:#282a69;fill-opacity:1;fill-rule:nonzero;stroke:none"
         d="m 360,420 c 33.137,0 60,-26.859 60,-60 0,-33.141 -26.863,-60 -60,-60 -33.137,0 -60,26.859 -60,60 0,33.141 26.863,60 60,60" /><path
         id="path16"
         style="fill:#282a69;fill-opacity:1;fill-rule:nonzero;stroke:none"
         d="m 1080,1200 c 66.27,0 120,-53.73 120,-120 0,-66.27 -53.73,-120 -120,-120 -66.27,0 -120,53.73 -120,120 0,66.27 53.73,120 120,120" /><path
         id="path18"
         style="fill:#282a69;fill-opacity:1;fill-rule:nonzero;stroke:none"
         d="m 1800,2040 c 132.55,0 240,-107.45 240,-240 0,-132.55 -107.45,-240 -240,-240 -132.55,0 -240,107.45 -240,240 0,132.55 107.45,240 240,240" /><path
         id="path20"
         style="fill:#282a69;fill-opacity:1;fill-rule:nonzero;stroke:none"
         d="m 2520,2760 c 132.55,0 240,-107.45 240,-240 0,-132.55 -107.45,-240 -240,-240 -132.55,0 -240,107.45 -240,240 0,132.55 107.45,240 240,240" /><path
         id="path22"
         style="fill:#282a69;fill-opacity:1;fill-rule:nonzero;stroke:none"
         d="m 3240,3540 c 165.69,0 300,-134.31 300,-300 0,-165.69 -134.31,-300 -300,-300 -165.69,0 -300,134.31 -300,300 0,165.69 134.31,300 300,300" /><path
         id="path24"
         style="fill:#282a69;fill-opacity:1;fill-rule:nonzero;stroke:none"
         d="m 3960,4260 c 165.69,0 300,-134.31 300,-300 0,-165.69 -134.31,-300 -300,-300 -165.69,0 -300,134.31 -300,300 0,165.69 134.31,300 300,300" /><path
         id="path26"
         style="fill:#282a69;fill-opacity:1;fill-rule:nonzero;stroke:none"
         d="m 3960,4740 c 33.14,0 60,-26.86 60,-60 0,-33.14 -26.86,-60 -60,-60 -33.14,0 -60,26.86 -60,60 0,33.14 26.86,60 60,60" /><path
         id="path28"
         style="fill:#282a69;fill-opacity:1;fill-rule:nonzero;stroke:none"
         d="m 4680,4020 c 33.14,0 60,-26.86 60,-60 0,-33.14 -26.86,-60 -60,-60 -33.14,0 -60,26.86 -60,60 0,33.14 26.86,60 60,60" /><path
         id="path30"
         style="fill:#282a69;fill-opacity:1;fill-rule:nonzero;stroke:none"
         d="m 4680,5040 c 198.82,0 360,-161.18 360,-360 0,-198.82 -161.18,-360 -360,-360 -198.82,0 -360,161.18 -360,360 0,198.82 161.18,360 360,360" /><path
         id="path32"
         style="fill:#282a69;fill-opacity:1;fill-rule:nonzero;stroke:none"
         d="m 3240,5460 c 33.14,0 60,-26.86 60,-60 0,-33.14 -26.86,-60 -60,-60 -33.14,0 -60,26.86 -60,60 0,33.14 26.86,60 60,60" /><path
         id="path34"
         style="fill:#282a69;fill-opacity:1;fill-rule:nonzero;stroke:none"
         d="m 3960,5520 c 66.27,0 120,-53.73 120,-120 0,-66.27 -53.73,-120 -120,-120 -66.27,0 -120,53.73 -120,120 0,66.27 53.73,120 120,120" /><path
         id="path36"
         style="fill:#282a69;fill-opacity:1;fill-rule:nonzero;stroke:none"
         d="m 4680,5640 c 132.55,0 240,-107.45 240,-240 0,-132.55 -107.45,-240 -240,-240 -132.55,0 -240,107.45 -240,240 0,132.55 107.45,240 240,240" /><path
         id="path38"
         style="fill:#282a69;fill-opacity:1;fill-rule:nonzero;stroke:none"
         d="m 1080,6180 c 33.14,0 60,-26.86 60,-60 0,-33.14 -26.86,-60 -60,-60 -33.14,0 -60,26.86 -60,60 0,33.14 26.86,60 60,60" /><path
         id="path40"
         style="fill:#282a69;fill-opacity:1;fill-rule:nonzero;stroke:none"
         d="m 1800,6240 c 66.27,0 120,-53.73 120,-120 0,-66.27 -53.73,-120 -120,-120 -66.27,0 -120,53.73 -120,120 0,66.27 53.73,120 120,120" /><path
         id="path42"
         style="fill:#282a69;fill-opacity:1;fill-rule:nonzero;stroke:none"
         d="m 2520,6240 c 66.27,0 120,-53.73 120,-120 0,-66.27 -53.73,-120 -120,-120 -66.27,0 -120,53.73 -120,120 0,66.27 53.73,120 120,120" /><path
         id="path44"
         style="fill:#282a69;fill-opacity:1;fill-rule:nonzero;stroke:none"
         d="m 3240,6360 c 132.55,0 240,-107.45 240,-240 0,-132.55 -107.45,-240 -240,-240 -132.55,0 -240,107.45 -240,240 0,132.55 107.45,240 240,240" /><path
         id="path46"
         style="fill:#282a69;fill-opacity:1;fill-rule:nonzero;stroke:none"
         d="m 3960,6360 c 132.55,0 240,-107.45 240,-240 0,-132.55 -107.45,-240 -240,-240 -132.55,0 -240,107.45 -240,240 0,132.55 107.45,240 240,240" /><path
         id="path48"
         style="fill:#282a69;fill-opacity:1;fill-rule:nonzero;stroke:none"
         d="m 4680,6420 c 165.69,0 300,-134.32 300,-300 0,-165.68 -134.31,-300 -300,-300 -165.69,0 -300,134.32 -300,300 0,165.68 134.31,300 300,300" /><path
         id="path50"
         style="fill:#282a69;fill-opacity:1;fill-rule:nonzero;stroke:none"
         d="m 5400,3300 c 33.14,0 60,-26.86 60,-60 0,-33.14 -26.86,-60 -60,-60 -33.14,0 -60,26.86 -60,60 0,33.14 26.86,60 60,60" /><path
         id="path52"
         style="fill:#282a69;fill-opacity:1;fill-rule:nonzero;stroke:none"
         d="m 5400,4080 c 66.27,0 120,-53.73 120,-120 0,-66.27 -53.73,-120 -120,-120 -66.27,0 -120,53.73 -120,120 0,66.27 53.73,120 120,120" /><path
         id="path54"
         style="fill:#282a69;fill-opacity:1;fill-rule:nonzero;stroke:none"
         d="m 5400,4920 c 132.55,0 240,-107.45 240,-240 0,-132.55 -107.45,-240 -240,-240 -132.55,0 -240,107.45 -240,240 0,132.55 107.45,240 240,240" /><path
         id="path56"
         style="fill:#282a69;fill-opacity:1;fill-rule:nonzero;stroke:none"
         d="m 5400,5760 c 198.82,0 360,-161.18 360,-360 0,-198.82 -161.18,-360 -360,-360 -198.82,0 -360,161.18 -360,360 0,198.82 161.18,360 360,360" /><path
         id="path58"
         style="fill:#282a69;fill-opacity:1;fill-rule:nonzero;stroke:none"
         d="m 5400,6480 c 198.82,0 360,-161.18 360,-360 0,-198.82 -161.18,-360 -360,-360 -198.82,0 -360,161.18 -360,360 0,198.82 161.18,360 360,360" /><path
         id="path60"
         style="fill:#282a69;fill-opacity:1;fill-rule:nonzero;stroke:none"
         d="m 6120,1140 c 33.14,0 60,-26.86 60,-60 0,-33.14 -26.86,-60 -60,-60 -33.14,0 -60,26.86 -60,60 0,33.14 26.86,60 60,60" /><path
         id="path62"
         style="fill:#282a69;fill-opacity:1;fill-rule:nonzero;stroke:none"
         d="m 6120,1920 c 66.27,0 120,-53.73 120,-120 0,-66.27 -53.73,-120 -120,-120 -66.27,0 -120,53.73 -120,120 0,66.27 53.73,120 120,120" /><path
         id="path64"
         style="fill:#282a69;fill-opacity:1;fill-rule:nonzero;stroke:none"
         d="m 6120,2640 c 66.27,0 120,-53.73 120,-120 0,-66.27 -53.73,-120 -120,-120 -66.27,0 -120,53.73 -120,120 0,66.27 53.73,120 120,120" /><path
         id="path66"
         style="fill:#282a69;fill-opacity:1;fill-rule:nonzero;stroke:none"
         d="m 6120,3480 c 132.55,0 240,-107.45 240,-240 0,-132.55 -107.45,-240 -240,-240 -132.55,0 -240,107.45 -240,240 0,132.55 107.45,240 240,240" /><path
         id="path68"
         style="fill:#282a69;fill-opacity:1;fill-rule:nonzero;stroke:none"
         d="m 6120,4200 c 132.55,0 240,-107.45 240,-240 0,-132.55 -107.45,-240 -240,-240 -132.55,0 -240,107.45 -240,240 0,132.55 107.45,240 240,240" /><path
         id="path70"
         style="fill:#282a69;fill-opacity:1;fill-rule:nonzero;stroke:none"
         d="m 6120,4980 c 165.69,0 300,-134.31 300,-300 0,-165.69 -134.31,-300 -300,-300 -165.69,0 -300,134.31 -300,300 0,165.69 134.31,300 300,300" /><path
         id="path72"
         style="fill:#282a69;fill-opacity:1;fill-rule:nonzero;stroke:none"
         d="m 6120,5760 c 198.82,0 360,-161.18 360,-360 0,-198.82 -161.18,-360 -360,-360 -198.82,0 -360,161.18 -360,360 0,198.82 161.18,360 360,360" /><path
         id="path74"
         style="fill:#282a69;fill-opacity:1;fill-rule:nonzero;stroke:none"
         d="m 6120,6480 c 198.82,0 360,-161.18 360,-360 0,-198.82 -161.18,-360 -360,-360 -198.82,0 -360,161.18 -360,360 0,198.82 161.18,360 360,360" /></g></g></svg>