<svg xmlns="http://www.w3.org/2000/svg" viewBox="0 0 648 648"><defs><style>.cls-1{fill:#f9423a;}.cls-2{fill:#280071;}</style></defs><g id="NULL_dot-matrix" data-name="NULL dot-matrix"><circle class="cls-1" cx="36" cy="36" r="3"/><circle class="cls-1" cx="108" cy="36" r="3"/><circle class="cls-1" cx="180" cy="36" r="3"/><circle class="cls-1" cx="252" cy="36" r="3"/><circle class="cls-1" cx="324" cy="36" r="3"/><circle class="cls-1" cx="396" cy="36" r="3"/><circle class="cls-1" cx="468" cy="36" r="3"/><circle class="cls-1" cx="36" cy="108" r="3"/><circle class="cls-1" cx="108" cy="108" r="3"/><circle class="cls-1" cx="180" cy="108" r="3"/><circle class="cls-1" cx="252" cy="108" r="3"/><circle class="cls-1" cx="324" cy="108" r="3"/><circle class="cls-1" cx="396" cy="108" r="3"/><circle class="cls-1" cx="468" cy="108" r="3"/><circle class="cls-1" cx="36" cy="180" r="3"/><circle class="cls-1" cx="108" cy="180" r="3"/><circle class="cls-1" cx="180" cy="180" r="3"/><circle class="cls-1" cx="252" cy="180" r="3"/><circle class="cls-1" cx="324" cy="180" r="3"/><circle class="cls-1" cx="396" cy="180" r="3"/><circle class="cls-1" cx="468" cy="180" r="3"/><circle class="cls-1" cx="36" cy="252" r="3"/><circle class="cls-1" cx="108" cy="252" r="3"/><circle class="cls-1" cx="180" cy="252" r="3"/><circle class="cls-1" cx="252" cy="252" r="3"/><circle class="cls-1" cx="324" cy="252" r="3"/><circle class="cls-1" cx="396" cy="252" r="3"/><circle class="cls-1" cx="468" cy="252" r="3"/><circle class="cls-1" cx="36" cy="324" r="3"/><circle class="cls-1" cx="108" cy="324" r="3"/><circle class="cls-1" cx="180" cy="324" r="3"/><circle class="cls-1" cx="252" cy="324" r="3"/><circle class="cls-1" cx="324" cy="324" r="3"/><circle class="cls-1" cx="396" cy="324" r="3"/><circle class="cls-1" cx="468" cy="324" r="3"/><circle class="cls-1" cx="36" cy="396" r="3"/><circle class="cls-1" cx="108" cy="396" r="3"/><circle class="cls-1" cx="180" cy="396" r="3"/><circle class="cls-1" cx="252" cy="396" r="3"/><circle class="cls-1" cx="324" cy="396" r="3"/><circle class="cls-1" cx="396" cy="396" r="3"/><circle class="cls-1" cx="468" cy="396" r="3"/><circle class="cls-1" cx="36" cy="468" r="3"/><circle class="cls-1" cx="108" cy="468" r="3"/><circle class="cls-1" cx="180" cy="468" r="3"/><circle class="cls-1" cx="252" cy="468" r="3"/><circle class="cls-1" cx="324" cy="468" r="3"/><circle class="cls-1" cx="396" cy="468" r="3"/><circle class="cls-1" cx="468" cy="468" r="3"/><circle class="cls-1" cx="540" cy="36" r="3"/><circle class="cls-1" cx="540" cy="108" r="3"/><circle class="cls-1" cx="540" cy="180" r="3"/><circle class="cls-1" cx="540" cy="252" r="3"/><circle class="cls-1" cx="540" cy="324" r="3"/><circle class="cls-1" cx="540" cy="396" r="3"/><circle class="cls-1" cx="540" cy="468" r="3"/><circle class="cls-1" cx="612" cy="36" r="3"/><circle class="cls-1" cx="612" cy="108" r="3"/><circle class="cls-1" cx="612" cy="180" r="3"/><circle class="cls-1" cx="612" cy="252" r="3"/><circle class="cls-1" cx="612" cy="324" r="3"/><circle class="cls-1" cx="612" cy="396" r="3"/><circle class="cls-1" cx="612" cy="468" r="3"/><circle class="cls-1" cx="36" cy="540" r="3"/><circle class="cls-1" cx="108" cy="540" r="3"/><circle class="cls-1" cx="180" cy="540" r="3"/><circle class="cls-1" cx="252" cy="540" r="3"/><circle class="cls-1" cx="324" cy="540" r="3"/><circle class="cls-1" cx="396" cy="540" r="3"/><circle class="cls-1" cx="468" cy="540" r="3"/><circle class="cls-1" cx="540" cy="540" r="3"/><circle class="cls-1" cx="612" cy="540" r="3"/><circle class="cls-1" cx="36" cy="612" r="3"/><circle class="cls-1" cx="108" cy="612" r="3"/><circle class="cls-1" cx="180" cy="612" r="3"/><circle class="cls-1" cx="252" cy="612" r="3"/><circle class="cls-1" cx="324" cy="612" r="3"/><circle class="cls-1" cx="396" cy="612" r="3"/><circle class="cls-1" cx="468" cy="612" r="3"/><circle class="cls-1" cx="540" cy="612" r="3"/><circle class="cls-1" cx="612" cy="612" r="3"/></g><g id="_09_Factory" data-name="09 Factory"><circle class="cls-2" cx="396" cy="36" r="6"/><circle class="cls-2" cx="468" cy="36" r="6"/><circle class="cls-2" cx="180" cy="108" r="6"/><circle class="cls-2" cx="252" cy="108" r="6"/><circle class="cls-2" cx="324" cy="108" r="12"/><circle class="cls-2" cx="396" cy="108" r="12"/><circle class="cls-2" cx="468" cy="108" r="24"/><circle class="cls-2" cx="468" cy="180" r="6"/><circle class="cls-2" cx="36" cy="252" r="12"/><circle class="cls-2" cx="252" cy="252" r="12"/><circle class="cls-2" cx="36" cy="324" r="24"/><circle class="cls-2" cx="108" cy="324" r="12"/><circle class="cls-2" cx="252" cy="324" r="24"/><circle class="cls-2" cx="324" cy="324" r="12"/><circle class="cls-2" cx="36" cy="396" r="30"/><circle class="cls-2" cx="108" cy="396" r="24"/><circle class="cls-2" cx="180" cy="396" r="12"/><circle class="cls-2" cx="252" cy="396" r="30"/><circle class="cls-2" cx="324" cy="396" r="24"/><circle class="cls-2" cx="396" cy="396" r="12"/><circle class="cls-2" cx="36" cy="468" r="36"/><circle class="cls-2" cx="108" cy="468" r="36"/><circle class="cls-2" cx="180" cy="468" r="30"/><circle class="cls-2" cx="252" cy="468" r="24"/><circle class="cls-2" cx="324" cy="468" r="36"/><circle class="cls-2" cx="396" cy="468" r="30"/><circle class="cls-2" cx="468" cy="468" r="24"/><circle class="cls-2" cx="540" cy="36" r="12"/><circle class="cls-2" cx="540" cy="108" r="36"/><circle class="cls-2" cx="540" cy="180" r="36"/><circle class="cls-2" cx="540" cy="252" r="36"/><circle class="cls-2" cx="540" cy="324" r="36"/><circle class="cls-2" cx="540" cy="396" r="36"/><circle class="cls-2" cx="540" cy="468" r="36"/><circle class="cls-2" cx="612" cy="108" r="36"/><circle class="cls-2" cx="612" cy="180" r="36"/><circle class="cls-2" cx="612" cy="252" r="36"/><circle class="cls-2" cx="612" cy="324" r="36"/><circle class="cls-2" cx="612" cy="396" r="36"/><circle class="cls-2" cx="612" cy="468" r="36"/><circle class="cls-2" cx="36" cy="540" r="36"/><circle class="cls-2" cx="108" cy="540" r="36"/><circle class="cls-2" cx="180" cy="540" r="36"/><circle class="cls-2" cx="252" cy="540" r="36"/><circle class="cls-2" cx="324" cy="540" r="36"/><circle class="cls-2" cx="396" cy="540" r="36"/><circle class="cls-2" cx="468" cy="540" r="36"/><circle class="cls-2" cx="540" cy="540" r="36"/><circle class="cls-2" cx="612" cy="540" r="36"/><circle class="cls-2" cx="36" cy="612" r="36"/><circle class="cls-2" cx="108" cy="612" r="36"/><circle class="cls-2" cx="180" cy="612" r="36"/><circle class="cls-2" cx="252" cy="612" r="36"/><circle class="cls-2" cx="324" cy="612" r="36"/><circle class="cls-2" cx="396" cy="612" r="36"/><circle class="cls-2" cx="468" cy="612" r="36"/><circle class="cls-2" cx="540" cy="612" r="36"/><circle class="cls-2" cx="612" cy="612" r="36"/></g></svg>